# xmcd CD database file
#
# Track frame offsets:
#	150
#	32050
#	45688
#	89090
#	103735
#	121763
#	138403
#	155343
#
# Disc length: 2335 seconds
#
# Revision: 4
# Processed by: cddbd v1.5.1PL0 Copyright (c) Steve Scherf et al.
# Submitted via: CDex 1.51
#
DISCID=66091d08
DTITLE=Modern Jazz Quartet - Django
DYEAR=1953
DGENRE=Jazz
TTITLE0=Django
TTITLE1=One Bass Hit
TTITLE2=La Ronde Suite
TTITLE3=The Queen's Fancy
TTITLE4=Delaunay's Dilemma
TTITLE5=Autumn In New York
TTITLE6=But Not For Me
TTITLE7=Milano
EXTD=YEAR: 1953
EXTT0=
EXTT1=
EXTT2=
EXTT3=
EXTT4=
EXTT5=
EXTT6=
EXTT7=
PLAYORDER=
